/* XPM */
static char *gun_hotbar1692112870[] = {
/* columns rows colors chars-per-pixel */
"80 80 50 1 ",
"  c None",
". c #11110F",
"X c #141414",
"o c #181715",
"O c #171817",
"+ c #181816",
"@ c #161719",
"# c #181718",
"$ c #171819",
"% c #1C1D1D",
"& c #201F1C",
"* c #1F201F",
"= c #21201F",
"- c #1E1F20",
"; c #201F21",
": c #1F2021",
"> c #232324",
", c #292727",
"< c #272825",
"1 c #2B2927",
"2 c #262629",
"3 c #282729",
"4 c #27292A",
"5 c #2B2B2C",
"6 c #302A21",
"7 c #312E2D",
"8 c #3A2D2F",
"9 c #2E302F",
"0 c #3D3526",
"q c #34302D",
"w c #2D2E31",
"e c #302F31",
"r c #2E3032",
"t c #313133",
"y c #393435",
"u c #363639",
"i c #38373B",
"p c #3A3A3C",
"a c #423A2B",
"s c #562D30",
"d c #473233",
"f c #434245",
"g c #4D4D4F",
"h c #4E4D50",
"j c #514F53",
"k c #565657",
"l c #59575B",
"z c #626264",
"x c #737375",
"c c #7C7C7F",
/* pixels */
"                                                                                ",
"                                                                                ",
"                                                                                ",
"                                                                                ",
"                                                                                ",
"                                                                                ",
"                                                                                ",
"                                                                                ",
"                                                                                ",
"                                                                                ",
"                                                                                ",
"                                                                                ",
"                                                                                ",
"                                                                                ",
"                                                                                ",
"                                                                                ",
"                                                           w                    ",
"             w                                            4wr                   ",
"           twru                             rrwwwrtwrwrwwrr425iiiit             ",
"         wwwwwtww44ww4ww4w4ww4w4ww4444w44w4wwr5wwwwwr5wrwwr55writiy             ",
"         255wwwtrwwwrrrrrtwwwtwtrrttttrrrrrteewwwwwww5w5t2><25tuyti             ",
"         ->w555wrwwwrwwwwewww55trwwr5tt5rwwwe4222::2>:>>trw57eww5tu             ",
"         o%w4555wwwwww4w5w5ww55rwwww5twq5erwe52<22:2>>>>4tt8sy55rrt             ",
"          -w555ww4w4ww445wewt55ewtwttttttrttew2<224>22225etydytttty             ",
"           545w5w55595225554444555et575555555552424wwwret755w4w55557            ",
"           rww5w4:2>==**=>>254,455555555wet5ee55444444tttw5ww>4>>>5t            ",
"           5w5ww4>55<=*=5q<5rw545we955555552w454455w44245twwtw4>>>4tt           ",
"           54w4w5><<===0aa0655wrw5555w5e5w53tw54454w42;;>>2224w4><,5ypt         ",
"           4322>>%%%%%**====+*%%5r555w55ww55w55ewwwe52%--2pp::44,<45,4,<        ",
"            OOooO%**%*%%%*%*..XX+559w555wtw2>>2>2>2252>;;ezci>2451t>o           ",
"                 :%++*><>2<*     :>>>>2>+%+$o%:%+%>><w2<>ehzy42;155#            ",
"                tt4433*:===9r     9545t      55   ;22e3533wt554257<             ",
"                44,>>>>::=>4<5     54q,      w9    >:w4322,445555t1             ",
"                >=>%%%++%%==<>  ><  r5       r5     245232455,555q              ",
"                 o%..XXXXXo%o      4t        5      2>w24235,5455q              ",
"                                   <r       5      >2>5>542454,5557             ",
"                                    4      5      > 2242;w333545557             ",
"                                    5            >25>:>2;532475,555             ",
"                                     wt         35554%-2;73<3ew53555            ",
"                                      >55r5555www   @2>4>>e2,5ee,557            ",
"                                          %>         $>42;5555e5<3375           ",
"                                                      %35;,54e4,,5537           ",
"                                                      $25;255;>,355,7           ",
"                                                      @>w>;5e355455557          ",
"                                                      @>4;-254545,55,7          ",
"                                                       -32->,4,554554e          ",
"                                                       %<5>>33454,53547         ",
"                                                       %2w>%333315455,5         ",
"                                                       %>w;-24444555547         ",
"                                                       $:5>-;45efjdw5w5         ",
"                                                        :45-;33izxl75555        ",
"                                                        ->w-%33tkzje4457        ",
"                                                        %2w>&>45ei55,,<5        ",
"                                                        #>5;>-;45354522,        ",
"                                                        --4>>;;;%%%%%=>5        ",
"                                                        -:55;&##@ooOOO>5        ",
"                                                         %>:>::2<>>22<          ",
"                                                         -:>>>>:<     4         ",
"                                                                                ",
"                                                                                ",
"                                                                                ",
"                                                                                ",
"                                                                                ",
"                                                                                ",
"                                                                                ",
"                                                                                ",
"                                                                                ",
"                                                                                ",
"                                                                                ",
"                                                                                ",
"                                                                                ",
"                                                                                ",
"                                                                                ",
"                                                                                ",
"                                                                                ",
"                                                                                ",
"                                                                                ",
"                                                                                ",
"                                                                                ",
"                                                                                "
};
